<svg xmlns="http://www.w3.org/2000/svg" xmlns:xlink="http://www.w3.org/1999/xlink" width="123" zoomAndPan="magnify" viewBox="0 0 92.25 57.749998" height="77" preserveAspectRatio="xMidYMid meet" version="1.0"><defs><clipPath id="6e4f8661d7"><path d="M 22 28 L 69 28 L 69 56.734375 L 22 56.734375 Z M 22 28 " clip-rule="nonzero"/></clipPath><clipPath id="f31d75cdc0"><path d="M 44 0.195312 L 47 0.195312 L 47 7 L 44 7 Z M 44 0.195312 " clip-rule="nonzero"/></clipPath><clipPath id="8a4031e098"><path d="M 0.101562 28 L 23 28 L 23 56.734375 L 0.101562 56.734375 Z M 0.101562 28 " clip-rule="nonzero"/></clipPath><clipPath id="d601d869b6"><path d="M 68 28 L 90.863281 28 L 90.863281 56.734375 L 68 56.734375 Z M 68 28 " clip-rule="nonzero"/></clipPath><clipPath id="8b13b713ae"><path d="M 66.320312 51.644531 L 68.113281 51.644531 L 68.113281 53.4375 L 66.320312 53.4375 Z M 66.320312 51.644531 " clip-rule="nonzero"/></clipPath><clipPath id="b0746ec7d6"><path d="M 67.21875 51.644531 C 66.722656 51.644531 66.320312 52.046875 66.320312 52.539062 C 66.320312 53.035156 66.722656 53.4375 67.21875 53.4375 C 67.710938 53.4375 68.113281 53.035156 68.113281 52.539062 C 68.113281 52.046875 67.710938 51.644531 67.21875 51.644531 Z M 67.21875 51.644531 " clip-rule="nonzero"/></clipPath></defs><path fill="#5a8434" d="M 30.222656 48.027344 C 29.445312 47.886719 28.734375 48.382812 28.59375 49.160156 L 28.453125 49.515625 C 28.378906 49.941406 28.453125 50.367188 28.734375 50.71875 C 29.019531 51.074219 29.445312 51.214844 29.867188 51.214844 L 30.222656 51.214844 C 31.003906 51.214844 31.640625 50.578125 31.640625 49.800781 C 31.640625 49.375 31.429688 49.019531 31.144531 48.738281 C 30.933594 48.382812 30.648438 48.167969 30.222656 48.027344 Z M 30.222656 48.027344 " fill-opacity="1" fill-rule="nonzero"/><path fill="#5a8434" d="M 32.5625 43.351562 L 32.703125 42.570312 C 32.84375 41.792969 32.347656 41.082031 31.570312 40.941406 C 30.789062 40.800781 30.082031 41.296875 29.941406 42.074219 L 29.796875 42.855469 C 29.65625 43.632812 30.152344 44.34375 30.933594 44.484375 C 31.640625 44.625 32.417969 44.128906 32.5625 43.351562 Z M 32.5625 43.351562 " fill-opacity="1" fill-rule="nonzero"/><path fill="#5a8434" d="M 34.402344 35.625 C 34.402344 34.847656 33.765625 34.210938 32.988281 34.210938 C 32.207031 34.210938 31.429688 34.492188 31.214844 35.34375 L 31.144531 35.699219 C 31.003906 36.476562 31.5 37.1875 32.277344 37.328125 C 32.773438 37.398438 33.339844 37.257812 33.625 36.832031 C 34.121094 36.617188 34.402344 36.195312 34.402344 35.625 Z M 34.402344 35.625 " fill-opacity="1" fill-rule="nonzero"/><path fill="#5a8434" d="M 59.703125 35.34375 C 59.5625 34.707031 58.992188 34.210938 58.285156 34.210938 L 57.929688 34.210938 C 57.152344 34.210938 56.515625 34.847656 56.515625 35.625 C 56.515625 36.195312 56.796875 36.617188 57.222656 36.902344 C 57.507812 37.257812 57.859375 37.398438 58.285156 37.398438 C 59.136719 37.398438 59.84375 36.546875 59.703125 35.699219 Z M 59.703125 35.34375 " fill-opacity="1" fill-rule="nonzero"/><path fill="#5a8434" d="M 60.976562 42.074219 C 60.835938 41.296875 60.058594 40.800781 59.347656 40.941406 C 58.570312 41.082031 58.074219 41.863281 58.214844 42.570312 L 58.355469 43.351562 C 58.496094 44.128906 59.277344 44.625 59.984375 44.484375 C 60.765625 44.34375 61.261719 43.5625 61.121094 42.855469 Z M 60.976562 42.074219 " fill-opacity="1" fill-rule="nonzero"/><path fill="#5a8434" d="M 59.773438 48.738281 C 59.488281 49.019531 59.277344 49.375 59.277344 49.800781 C 59.277344 50.578125 59.914062 51.214844 60.695312 51.214844 L 61.050781 51.214844 C 61.472656 51.214844 61.898438 51.003906 62.113281 50.71875 C 62.324219 50.4375 62.464844 49.941406 62.394531 49.515625 L 62.324219 49.160156 C 62.183594 48.382812 61.402344 47.886719 60.695312 48.027344 C 60.269531 48.167969 59.984375 48.382812 59.773438 48.738281 Z M 59.773438 48.738281 " fill-opacity="1" fill-rule="nonzero"/><path fill="#5a8434" d="M 35.75 51.214844 L 36.460938 51.214844 C 37.238281 51.214844 37.875 50.578125 37.875 49.800781 C 37.875 49.019531 37.238281 48.382812 36.460938 48.382812 L 35.75 48.382812 C 34.972656 48.382812 34.332031 49.019531 34.332031 49.800781 C 34.332031 50.578125 34.972656 51.214844 35.75 51.214844 Z M 35.75 51.214844 " fill-opacity="1" fill-rule="nonzero"/><path fill="#5a8434" d="M 55.167969 48.382812 L 54.457031 48.382812 C 53.679688 48.382812 53.042969 49.019531 53.042969 49.800781 C 53.042969 50.578125 53.679688 51.214844 54.457031 51.214844 L 55.167969 51.214844 C 55.945312 51.214844 56.585938 50.578125 56.585938 49.800781 C 56.585938 49.019531 55.945312 48.382812 55.167969 48.382812 Z M 55.167969 48.382812 " fill-opacity="1" fill-rule="nonzero"/><path fill="#5a8434" d="M 41.988281 48.382812 C 41.207031 48.382812 40.570312 49.019531 40.570312 49.800781 C 40.570312 50.578125 41.207031 51.214844 41.988281 51.214844 L 42.695312 51.214844 C 43.476562 51.214844 44.113281 50.578125 44.113281 49.800781 C 44.113281 49.019531 43.476562 48.382812 42.695312 48.382812 Z M 41.988281 48.382812 " fill-opacity="1" fill-rule="nonzero"/><path fill="#5a8434" d="M 48.222656 48.382812 C 47.441406 48.382812 46.804688 49.019531 46.804688 49.800781 C 46.804688 50.578125 47.441406 51.214844 48.222656 51.214844 L 48.929688 51.214844 C 49.710938 51.214844 50.347656 50.578125 50.347656 49.800781 C 50.347656 49.019531 49.710938 48.382812 48.929688 48.382812 Z M 48.222656 48.382812 " fill-opacity="1" fill-rule="nonzero"/><g clip-path="url(#6e4f8661d7)"><path fill="#5a8434" d="M 64.875 31.941406 C 64.449219 29.957031 62.75 28.539062 60.695312 28.539062 L 55.097656 28.539062 C 55.238281 29.25 55.378906 30.027344 55.378906 30.878906 C 55.378906 31.019531 55.378906 31.234375 55.378906 31.375 L 60.695312 31.375 C 61.332031 31.375 61.96875 31.871094 62.042969 32.507812 C 62.042969 32.507812 65.9375 52.351562 65.9375 52.351562 C 66.082031 53.199219 65.441406 54.050781 64.59375 54.050781 L 26.324219 54.050781 C 25.476562 54.050781 24.765625 53.199219 24.980469 52.351562 L 28.875 32.507812 C 29.019531 31.871094 29.585938 31.375 30.222656 31.375 L 35.539062 31.375 C 35.539062 31.234375 35.539062 31.019531 35.539062 30.878906 C 35.539062 30.097656 35.609375 29.320312 35.820312 28.539062 L 30.222656 28.539062 C 28.167969 28.539062 26.46875 29.957031 26.042969 31.941406 C 26.042969 31.941406 22.144531 51.785156 22.144531 51.785156 C 21.648438 54.335938 23.703125 56.886719 26.324219 56.886719 C 26.324219 56.886719 64.59375 56.886719 64.59375 56.886719 C 67.214844 56.886719 69.269531 54.335938 68.773438 51.785156 Z M 64.875 31.941406 " fill-opacity="1" fill-rule="nonzero"/></g><path fill="#5a8434" d="M 52.402344 32.082031 C 52.472656 31.65625 52.546875 31.304688 52.546875 30.878906 C 52.546875 26.839844 49.355469 23.578125 45.457031 23.578125 C 41.5625 23.578125 38.371094 26.839844 38.371094 30.878906 C 38.371094 32.226562 38.726562 33.570312 39.507812 34.777344 L 39.578125 34.777344 C 40.003906 35.554688 41.136719 37.539062 44.253906 42.785156 C 44.539062 43.210938 44.960938 43.492188 45.457031 43.492188 C 45.953125 43.492188 46.449219 43.210938 46.664062 42.785156 C 50.347656 36.546875 51.058594 35.34375 51.199219 35.058594 C 51.765625 34.136719 52.191406 33.144531 52.402344 32.082031 Z M 49.640625 31.515625 C 49.5 32.226562 49.214844 32.933594 48.789062 33.5 C 48.71875 33.570312 46.734375 36.902344 45.457031 39.167969 C 44.113281 36.832031 41.988281 33.429688 41.914062 33.289062 C 41.417969 32.507812 41.207031 31.65625 41.207031 30.808594 C 41.207031 28.328125 43.121094 26.34375 45.457031 26.34375 C 48.011719 26.414062 50.136719 29.035156 49.640625 31.515625 Z M 49.640625 31.515625 " fill-opacity="1" fill-rule="nonzero"/><path fill="#5a8434" d="M 46.875 30.667969 C 46.875 30.855469 46.839844 31.035156 46.769531 31.207031 C 46.695312 31.382812 46.59375 31.535156 46.460938 31.667969 C 46.328125 31.800781 46.175781 31.902344 46 31.976562 C 45.828125 32.046875 45.648438 32.082031 45.457031 32.082031 C 45.269531 32.082031 45.089844 32.046875 44.917969 31.976562 C 44.742188 31.902344 44.589844 31.800781 44.457031 31.667969 C 44.324219 31.535156 44.222656 31.382812 44.148438 31.207031 C 44.078125 31.035156 44.042969 30.855469 44.042969 30.667969 C 44.042969 30.476562 44.078125 30.296875 44.148438 30.125 C 44.222656 29.949219 44.324219 29.796875 44.457031 29.664062 C 44.589844 29.53125 44.742188 29.429688 44.917969 29.355469 C 45.089844 29.285156 45.269531 29.25 45.457031 29.25 C 45.648438 29.25 45.828125 29.285156 46 29.355469 C 46.175781 29.429688 46.328125 29.53125 46.460938 29.664062 C 46.59375 29.796875 46.695312 29.949219 46.769531 30.125 C 46.839844 30.296875 46.875 30.476562 46.875 30.667969 Z M 46.875 30.667969 " fill-opacity="1" fill-rule="nonzero"/><g clip-path="url(#f31d75cdc0)"><path fill="#5a8434" d="M 45.457031 6.429688 C 46.238281 6.429688 46.875 5.792969 46.875 5.011719 L 46.875 1.613281 C 46.875 0.832031 46.238281 0.195312 45.457031 0.195312 C 44.679688 0.195312 44.042969 0.832031 44.042969 1.613281 L 44.042969 5.011719 C 44.042969 5.792969 44.679688 6.429688 45.457031 6.429688 Z M 45.457031 6.429688 " fill-opacity="1" fill-rule="nonzero"/></g><path fill="#5a8434" d="M 34.972656 10.042969 C 35.46875 10.613281 36.386719 10.613281 36.957031 10.117188 C 37.523438 9.546875 37.59375 8.699219 37.027344 8.132812 L 34.546875 5.507812 C 33.980469 4.941406 33.128906 4.871094 32.5625 5.4375 C 31.996094 6.003906 31.925781 6.855469 32.492188 7.421875 C 32.5625 7.421875 34.972656 10.042969 34.972656 10.042969 Z M 34.972656 10.042969 " fill-opacity="1" fill-rule="nonzero"/><path fill="#5a8434" d="M 39.082031 6.714844 C 39.433594 7.421875 40.285156 7.636719 40.996094 7.28125 C 41.703125 6.925781 41.988281 6.074219 41.5625 5.367188 L 40.570312 3.523438 C 40.214844 2.816406 39.363281 2.53125 38.65625 2.957031 C 37.949219 3.3125 37.664062 4.164062 38.089844 4.871094 C 38.089844 4.800781 39.082031 6.714844 39.082031 6.714844 Z M 39.082031 6.714844 " fill-opacity="1" fill-rule="nonzero"/><path fill="#5a8434" d="M 30.011719 13.375 C 30.4375 13.585938 32.066406 14.367188 32.492188 14.367188 C 33.058594 14.367188 33.554688 14.082031 33.765625 13.515625 C 34.121094 12.808594 33.765625 11.957031 33.058594 11.605469 L 31.144531 10.824219 C 30.4375 10.46875 29.585938 10.824219 29.230469 11.53125 C 28.949219 12.171875 29.300781 13.019531 30.011719 13.375 Z M 30.011719 13.375 " fill-opacity="1" fill-rule="nonzero"/><path fill="#5a8434" d="M 49.921875 7.28125 C 50.632812 7.636719 51.480469 7.351562 51.835938 6.714844 L 52.828125 4.871094 C 53.183594 4.164062 52.898438 3.3125 52.261719 2.957031 C 51.554688 2.605469 50.703125 2.886719 50.347656 3.523438 L 49.355469 5.367188 C 48.929688 6.074219 49.214844 6.925781 49.921875 7.28125 Z M 49.921875 7.28125 " fill-opacity="1" fill-rule="nonzero"/><path fill="#5a8434" d="M 57.152344 13.515625 C 57.507812 14.226562 58.355469 14.507812 59.066406 14.226562 L 60.976562 13.375 C 61.6875 13.019531 61.96875 12.242188 61.6875 11.460938 C 61.332031 10.753906 60.480469 10.46875 59.773438 10.753906 L 57.859375 11.605469 C 57.152344 11.957031 56.867188 12.808594 57.152344 13.515625 Z M 57.152344 13.515625 " fill-opacity="1" fill-rule="nonzero"/><path fill="#5a8434" d="M 53.609375 17.132812 C 54.386719 16.917969 54.8125 16.140625 54.601562 15.429688 C 53.539062 11.320312 49.921875 8.628906 45.386719 8.628906 C 40.921875 8.628906 37.238281 11.320312 36.175781 15.429688 C 35.964844 16.210938 36.460938 16.988281 37.167969 17.132812 C 37.875 17.34375 38.726562 16.847656 38.867188 16.140625 C 39.789062 12.667969 42.90625 11.460938 45.316406 11.460938 C 47.726562 11.460938 50.914062 12.667969 51.765625 16.140625 C 52.121094 16.917969 52.898438 17.34375 53.609375 17.132812 Z M 53.609375 17.132812 " fill-opacity="1" fill-rule="nonzero"/><path fill="#5a8434" d="M 4.359375 48.382812 C 3.578125 48.382812 2.941406 49.019531 2.941406 49.800781 C 2.941406 50.578125 3.578125 51.214844 4.359375 51.214844 L 11.941406 51.214844 C 12.578125 51.214844 13.214844 50.71875 13.355469 50.082031 C 13.355469 50.082031 16.40625 35.910156 16.40625 35.910156 C 16.617188 35.058594 15.910156 34.210938 14.988281 34.210938 L 4.359375 34.210938 C 3.578125 34.210938 2.941406 34.847656 2.941406 35.625 C 2.941406 36.40625 3.578125 37.042969 4.359375 37.042969 L 13.214844 37.042969 L 10.804688 48.382812 Z M 4.359375 48.382812 " fill-opacity="1" fill-rule="nonzero"/><g clip-path="url(#8a4031e098)"><path fill="#5a8434" d="M 18.53125 28.539062 L 1.523438 28.539062 C 0.742188 28.539062 0.105469 29.179688 0.105469 29.957031 C 0.105469 30.738281 0.742188 31.375 1.523438 31.375 L 18.53125 31.375 C 19.382812 31.375 20.019531 32.296875 19.875 33.074219 L 15.980469 52.847656 C 15.835938 53.484375 15.269531 53.980469 14.632812 53.980469 L 1.523438 53.980469 C 0.742188 53.980469 0.105469 54.617188 0.105469 55.398438 C 0.105469 56.175781 0.742188 56.816406 1.523438 56.816406 L 14.703125 56.816406 C 16.6875 56.816406 18.460938 55.398438 18.8125 53.34375 C 18.8125 53.34375 22.710938 33.570312 22.710938 33.570312 C 23.136719 32.011719 21.933594 28.539062 18.53125 28.539062 Z M 18.53125 28.539062 " fill-opacity="1" fill-rule="nonzero"/></g><path fill="#5a8434" d="M 87.976562 35.625 C 87.976562 34.847656 87.339844 34.210938 86.558594 34.210938 L 75.929688 34.210938 C 75.007812 34.210938 74.371094 35.058594 74.511719 35.910156 C 74.511719 35.910156 77.558594 50.082031 77.558594 50.082031 C 77.703125 50.71875 78.269531 51.214844 78.976562 51.214844 L 86.558594 51.214844 C 87.339844 51.214844 87.976562 50.578125 87.976562 49.800781 C 87.976562 49.019531 87.339844 48.382812 86.558594 48.382812 L 80.113281 48.382812 L 77.703125 37.042969 L 86.558594 37.042969 C 87.339844 37.042969 87.976562 36.40625 87.976562 35.625 Z M 87.976562 35.625 " fill-opacity="1" fill-rule="nonzero"/><g clip-path="url(#d601d869b6)"><path fill="#5a8434" d="M 89.394531 54.050781 L 76.214844 54.050781 C 75.578125 54.050781 75.007812 53.554688 74.867188 52.917969 L 70.96875 33.074219 C 70.828125 32.226562 71.464844 31.375 72.316406 31.375 L 89.324219 31.375 C 90.101562 31.375 90.742188 30.738281 90.742188 29.957031 C 90.742188 29.179688 90.101562 28.539062 89.324219 28.539062 L 72.316406 28.539062 C 68.984375 28.539062 67.78125 32.011719 68.207031 33.640625 C 68.207031 33.640625 72.105469 53.414062 72.105469 53.414062 C 72.527344 55.398438 74.230469 56.886719 76.214844 56.886719 L 89.394531 56.886719 C 90.175781 56.886719 90.8125 56.25 90.8125 55.46875 C 90.8125 54.6875 90.175781 54.050781 89.394531 54.050781 Z M 89.394531 54.050781 " fill-opacity="1" fill-rule="nonzero"/></g><path fill="#5a8434" d="M 55.875 10.042969 C 55.875 10.042969 58.355469 7.421875 58.355469 7.421875 C 58.921875 6.855469 58.851562 5.933594 58.285156 5.4375 C 57.71875 4.941406 56.796875 4.941406 56.300781 5.507812 L 53.820312 8.132812 C 53.253906 8.699219 53.324219 9.621094 53.890625 10.117188 C 54.457031 10.683594 55.378906 10.613281 55.875 10.042969 Z M 55.875 10.042969 " fill-opacity="1" fill-rule="nonzero"/><g clip-path="url(#8b13b713ae)"><g clip-path="url(#b0746ec7d6)"><path fill="#5a8434" d="M 66.320312 51.644531 L 68.113281 51.644531 L 68.113281 53.4375 L 66.320312 53.4375 Z M 66.320312 51.644531 " fill-opacity="1" fill-rule="nonzero"/></g></g></svg>