<svg xmlns="http://www.w3.org/2000/svg" xmlns:xlink="http://www.w3.org/1999/xlink" width="130" zoomAndPan="magnify" viewBox="0 0 97.5 47.25" height="63" preserveAspectRatio="xMidYMid meet" version="1.0"><defs><clipPath id="05ca1aefd6"><path d="M 50 33 L 96.128906 33 L 96.128906 46.453125 L 50 46.453125 Z M 50 33 " clip-rule="nonzero"/></clipPath><clipPath id="552174ad21"><path d="M 1.214844 0.679688 L 91 0.679688 L 91 46.453125 L 1.214844 46.453125 Z M 1.214844 0.679688 " clip-rule="nonzero"/></clipPath><clipPath id="cdfb055561"><path d="M 59.976562 24.339844 L 66.949219 24.339844 L 66.949219 31.316406 L 59.976562 31.316406 Z M 59.976562 24.339844 " clip-rule="nonzero"/></clipPath><clipPath id="0d15b07bc4"><path d="M 63.464844 24.339844 C 61.535156 24.339844 59.976562 25.902344 59.976562 27.828125 C 59.976562 29.753906 61.535156 31.316406 63.464844 31.316406 C 65.390625 31.316406 66.949219 29.753906 66.949219 27.828125 C 66.949219 25.902344 65.390625 24.339844 63.464844 24.339844 Z M 63.464844 24.339844 " clip-rule="nonzero"/></clipPath></defs><g clip-path="url(#05ca1aefd6)"><path fill="#5a8434" d="M 53.21875 43.410156 C 52.90625 43.101562 52.636719 42.75 52.414062 42.367188 L 52.316406 42.195312 L 51.0625 42.179688 L 50.824219 41.429688 L 51.816406 40.71875 L 51.789062 40.515625 C 51.769531 40.335938 51.753906 40.15625 51.75 39.980469 C 51.742188 39.773438 51.753906 39.558594 51.78125 39.335938 L 51.804688 39.136719 L 50.820312 38.425781 L 51.054688 37.679688 L 52.28125 37.664062 L 52.378906 37.492188 C 52.601562 37.09375 52.878906 36.734375 53.199219 36.414062 L 53.335938 36.277344 L 53.039062 35.0625 L 53.703125 34.648438 L 54.621094 35.410156 L 54.816406 35.328125 C 55.4375 35.0625 56.097656 34.929688 56.777344 34.929688 L 57.195312 34.929688 L 57.597656 33.710938 L 58.378906 33.710938 L 58.78125 34.929688 L 61.628906 34.929688 L 62.03125 33.710938 L 62.8125 33.710938 L 63.214844 34.929688 L 66.058594 34.929688 L 66.460938 33.710938 L 67.246094 33.710938 L 67.648438 34.929688 L 70.492188 34.929688 L 70.894531 33.710938 L 71.679688 33.710938 L 72.082031 34.929688 L 74.925781 34.929688 L 75.328125 33.710938 L 76.113281 33.710938 L 76.515625 34.929688 L 79.359375 34.929688 L 79.761719 33.710938 L 80.546875 33.710938 L 80.949219 34.929688 L 83.792969 34.929688 L 84.195312 33.710938 L 84.980469 33.710938 L 85.382812 34.929688 L 88.226562 34.929688 L 88.628906 33.710938 L 89.410156 33.710938 L 89.8125 34.929688 L 90.230469 34.929688 C 90.246094 34.929688 90.265625 34.929688 90.277344 34.929688 C 90.917969 34.9375 91.542969 35.0625 92.136719 35.304688 L 92.332031 35.382812 L 93.21875 34.640625 L 93.886719 35.054688 L 93.601562 36.207031 L 93.746094 36.347656 C 94.09375 36.679688 94.394531 37.066406 94.636719 37.484375 L 94.734375 37.65625 L 95.878906 37.671875 L 96.113281 38.421875 L 95.203125 39.074219 L 95.230469 39.273438 C 95.261719 39.511719 95.273438 39.746094 95.273438 39.976562 C 95.265625 40.160156 95.253906 40.363281 95.226562 40.558594 L 95.199219 40.765625 L 96.113281 41.429688 L 95.878906 42.179688 L 94.707031 42.195312 L 94.609375 42.367188 C 94.371094 42.777344 94.082031 43.144531 93.742188 43.472656 L 93.59375 43.609375 L 93.886719 44.804688 L 93.21875 45.21875 L 92.289062 44.441406 L 92.097656 44.519531 C 91.519531 44.742188 90.917969 44.859375 90.300781 44.859375 L 89.808594 44.859375 L 89.40625 46.078125 L 88.621094 46.078125 L 88.21875 44.859375 L 85.375 44.859375 L 84.972656 46.078125 L 84.1875 46.078125 L 83.785156 44.859375 L 80.941406 44.859375 L 80.539062 46.078125 L 79.753906 46.078125 L 79.351562 44.859375 L 76.507812 44.859375 L 76.105469 46.078125 L 75.320312 46.078125 L 74.917969 44.859375 L 72.074219 44.859375 L 71.671875 46.078125 L 70.890625 46.078125 L 70.488281 44.859375 L 67.640625 44.859375 L 67.238281 46.078125 L 66.457031 46.078125 L 66.054688 44.859375 L 63.207031 44.859375 L 62.804688 46.078125 L 62.023438 46.078125 L 61.621094 44.859375 L 58.777344 44.859375 L 58.375 46.078125 L 57.589844 46.078125 L 57.1875 44.859375 L 56.695312 44.859375 C 56.054688 44.859375 55.4375 44.742188 54.847656 44.496094 L 54.65625 44.421875 L 53.699219 45.21875 L 53.03125 44.804688 L 53.335938 43.546875 L 53.296875 43.507812 Z M 90.339844 43.242188 C 92.195312 43.242188 93.691406 41.738281 93.691406 39.890625 C 93.691406 38.046875 92.1875 36.539062 90.339844 36.539062 L 56.707031 36.539062 C 54.855469 36.539062 53.359375 38.046875 53.359375 39.890625 C 53.359375 41.738281 54.863281 43.242188 56.707031 43.242188 Z M 90.339844 43.242188 " fill-opacity="1" fill-rule="nonzero"/></g><path fill="#5a8434" d="M 53.710938 39.890625 C 53.710938 38.234375 55.058594 36.886719 56.714844 36.886719 L 90.347656 36.886719 C 92.007812 36.886719 93.351562 38.234375 93.351562 39.890625 C 93.351562 41.550781 92.007812 42.894531 90.347656 42.894531 L 56.722656 42.894531 C 55.058594 42.894531 53.710938 41.550781 53.710938 39.890625 Z M 58.1875 40.191406 L 63.804688 40.191406 C 63.945312 40.8125 64.5 41.277344 65.160156 41.277344 C 65.824219 41.277344 66.378906 40.8125 66.511719 40.191406 L 72.128906 40.191406 C 72.269531 40.8125 72.824219 41.277344 73.484375 41.277344 C 74.148438 41.277344 74.703125 40.8125 74.835938 40.191406 L 80.457031 40.191406 C 80.59375 40.8125 81.148438 41.277344 81.808594 41.277344 C 82.472656 41.277344 83.03125 40.8125 83.160156 40.191406 L 88.78125 40.191406 C 88.917969 40.8125 89.472656 41.277344 90.132812 41.277344 C 90.152344 41.277344 90.175781 41.277344 90.1875 41.277344 C 90.929688 41.25 91.519531 40.640625 91.519531 39.890625 C 91.519531 39.183594 90.992188 38.601562 90.308594 38.511719 C 90.25 38.503906 90.1875 38.496094 90.132812 38.496094 C 89.46875 38.496094 88.914062 38.960938 88.78125 39.585938 L 83.160156 39.585938 C 83.023438 38.960938 82.46875 38.496094 81.808594 38.496094 C 81.140625 38.496094 80.585938 38.960938 80.457031 39.585938 L 74.835938 39.585938 C 74.699219 38.960938 74.140625 38.496094 73.484375 38.496094 C 72.816406 38.496094 72.261719 38.960938 72.128906 39.585938 L 66.511719 39.585938 C 66.371094 38.960938 65.816406 38.496094 65.160156 38.496094 C 64.492188 38.496094 63.9375 38.960938 63.804688 39.585938 L 58.1875 39.585938 C 58.046875 38.960938 57.492188 38.496094 56.832031 38.496094 C 56.0625 38.496094 55.445312 39.121094 55.445312 39.882812 C 55.445312 40.65625 56.070312 41.273438 56.832031 41.273438 C 57.5 41.277344 58.046875 40.8125 58.1875 40.191406 Z M 58.1875 40.191406 " fill-opacity="1" fill-rule="nonzero"/><g clip-path="url(#552174ad21)"><path fill="#5a8434" d="M 5.09375 44.871094 C 8.296875 43.117188 12.960938 39.648438 15.519531 33.445312 C 17.832031 27.855469 17.339844 22.691406 16.617188 19.507812 L 13.8125 16.707031 L 14.855469 15.664062 L 26.910156 25.171875 L 26.910156 28.429688 L 32.226562 21.5625 L 33.613281 19.765625 L 35.875 21.097656 L 46.316406 27.25 L 46.316406 26.433594 C 46.316406 24.738281 47.683594 23.375 49.375 23.375 L 53.421875 23.375 L 58.109375 0.679688 L 79.683594 0.679688 L 79.683594 23.375 L 87.261719 23.375 C 88.953125 23.375 90.320312 24.738281 90.320312 26.433594 L 90.320312 34.125 L 89.953125 33.007812 L 88.164062 33.007812 L 87.761719 34.230469 L 85.914062 34.230469 L 85.511719 33.007812 L 83.722656 33.007812 L 83.320312 34.230469 L 81.476562 34.230469 L 81.074219 33.007812 L 79.289062 33.007812 L 78.886719 34.230469 L 77.042969 34.230469 L 76.640625 33.007812 L 74.851562 33.007812 L 74.449219 34.230469 L 72.601562 34.230469 L 72.199219 33.007812 L 70.410156 33.007812 L 70.007812 34.230469 L 68.164062 34.230469 L 67.761719 33.007812 L 65.96875 33.007812 L 65.566406 34.230469 L 63.722656 34.230469 L 63.320312 33.007812 L 61.53125 33.007812 L 61.128906 34.230469 L 59.28125 34.230469 L 58.878906 33.007812 L 57.089844 33.007812 L 56.6875 34.230469 C 56.015625 34.238281 55.363281 34.363281 54.738281 34.597656 L 53.761719 33.78125 L 52.242188 34.722656 L 52.566406 36.054688 C 52.304688 36.332031 52.074219 36.636719 51.871094 36.964844 L 50.542969 36.976562 L 50 38.683594 L 51.0625 39.453125 C 51.046875 39.632812 51.039062 39.816406 51.039062 39.988281 C 51.039062 40.121094 51.046875 40.253906 51.0625 40.390625 L 49.992188 41.160156 L 50.535156 42.867188 L 51.902344 42.882812 C 52.039062 43.097656 52.183594 43.304688 52.351562 43.5 L 45.554688 43.5 C 44.851562 43.5 44.289062 42.929688 44.289062 42.234375 L 44.289062 35.707031 C 44.289062 35.457031 44.367188 35.222656 44.492188 35.027344 L 34.535156 27.085938 L 26.90625 34.910156 L 26.90625 41.425781 L 17.109375 46.351562 L 1.230469 46.351562 L 1.230469 44.878906 L 5.09375 44.878906 Z M 88.023438 27.902344 C 88.121094 28.0625 88.296875 28.152344 88.46875 28.152344 C 88.558594 28.152344 88.65625 28.125 88.738281 28.078125 C 88.980469 27.925781 89.066406 27.605469 88.914062 27.363281 L 87.496094 25.046875 C 87.34375 24.800781 87.023438 24.71875 86.78125 24.871094 C 86.539062 25.023438 86.457031 25.34375 86.609375 25.585938 Z M 86.101562 27.902344 C 86.199219 28.0625 86.375 28.152344 86.546875 28.152344 C 86.636719 28.152344 86.734375 28.125 86.816406 28.078125 C 87.058594 27.925781 87.144531 27.605469 86.992188 27.363281 L 85.574219 25.046875 C 85.421875 24.800781 85.105469 24.71875 84.859375 24.871094 C 84.617188 25.023438 84.535156 25.34375 84.6875 25.585938 Z M 82.757812 25.585938 L 84.175781 27.902344 C 84.269531 28.0625 84.445312 28.152344 84.617188 28.152344 C 84.707031 28.152344 84.804688 28.125 84.886719 28.078125 C 85.132812 27.925781 85.214844 27.605469 85.0625 27.363281 L 83.648438 25.046875 C 83.496094 24.800781 83.175781 24.71875 82.933594 24.871094 C 82.6875 25.015625 82.613281 25.335938 82.757812 25.585938 Z M 68.03125 2.761719 L 59.808594 2.761719 L 56.320312 19.621094 L 68.03125 19.621094 Z M 77.605469 2.761719 L 70.113281 2.761719 L 70.113281 24.988281 L 77.605469 24.988281 Z M 77.605469 2.761719 " fill-opacity="1" fill-rule="nonzero"/></g><g clip-path="url(#cdfb055561)"><g clip-path="url(#0d15b07bc4)"><path fill="#5a8434" d="M 59.976562 24.339844 L 66.949219 24.339844 L 66.949219 31.316406 L 59.976562 31.316406 Z M 59.976562 24.339844 " fill-opacity="1" fill-rule="nonzero"/></g></g></svg>