<svg xmlns="http://www.w3.org/2000/svg" xmlns:xlink="http://www.w3.org/1999/xlink" width="86" zoomAndPan="magnify" viewBox="0 0 64.5 44.999999" height="60" preserveAspectRatio="xMidYMid meet" version="1.0"><defs><clipPath id="158a3fb40b"><path d="M 0.460938 0.28125 L 62.976562 0.28125 L 62.976562 44.824219 L 0.460938 44.824219 Z M 0.460938 0.28125 " clip-rule="nonzero"/></clipPath><clipPath id="60b912827c"><path d="M 17.425781 28.765625 L 19.21875 28.765625 L 19.21875 30.558594 L 17.425781 30.558594 Z M 17.425781 28.765625 " clip-rule="nonzero"/></clipPath><clipPath id="933f0a5373"><path d="M 18.324219 28.765625 C 17.828125 28.765625 17.425781 29.167969 17.425781 29.664062 C 17.425781 30.15625 17.828125 30.558594 18.324219 30.558594 C 18.820312 30.558594 19.21875 30.15625 19.21875 29.664062 C 19.21875 29.167969 18.820312 28.765625 18.324219 28.765625 Z M 18.324219 28.765625 " clip-rule="nonzero"/></clipPath></defs><g clip-path="url(#158a3fb40b)"><path fill="#5a8434" d="M 62.859375 19.144531 C 62.445312 18.382812 61.6875 17.929688 60.820312 17.929688 L 52.367188 17.929688 C 52.792969 16.054688 52.203125 14.207031 50.808594 12.964844 C 51.167969 11.855469 51.09375 10.632812 50.582031 9.554688 C 50.09375 8.535156 49.28125 7.757812 48.28125 7.328125 C 48.4375 6.300781 48.210938 5.242188 47.625 4.34375 C 46.828125 3.128906 45.488281 2.402344 44.039062 2.402344 C 42.589844 2.402344 41.25 3.128906 40.457031 4.34375 C 39.867188 5.242188 39.644531 6.300781 39.796875 7.328125 C 38.796875 7.757812 37.988281 8.535156 37.5 9.554688 C 36.984375 10.632812 36.910156 11.855469 37.269531 12.964844 C 35.875 14.207031 35.285156 16.054688 35.714844 17.929688 L 33.265625 17.929688 L 33.265625 2.546875 C 33.265625 1.296875 32.25 0.277344 31 0.277344 L 7.742188 0.277344 C 6.488281 0.277344 5.472656 1.296875 5.472656 2.546875 L 5.472656 21.476562 C 5.472656 22.726562 6.488281 23.746094 7.742188 23.746094 L 12.386719 23.746094 L 1.015625 41.085938 C 0.542969 41.808594 0.503906 42.691406 0.914062 43.453125 C 1.324219 44.214844 2.085938 44.667969 2.953125 44.667969 L 46.320312 44.667969 C 47.117188 44.667969 47.820312 44.289062 48.257812 43.625 L 62.757812 21.511719 C 63.230469 20.789062 63.269531 19.90625 62.859375 19.144531 Z M 39.046875 14.140625 C 39.496094 13.855469 39.644531 13.265625 39.386719 12.800781 C 38.972656 12.0625 38.949219 11.199219 39.316406 10.425781 C 39.683594 9.660156 40.371094 9.140625 41.203125 9 C 41.507812 8.949219 41.773438 8.757812 41.921875 8.484375 C 42.066406 8.210938 42.082031 7.886719 41.957031 7.601562 C 41.648438 6.902344 41.71875 6.09375 42.144531 5.445312 C 42.570312 4.792969 43.261719 4.417969 44.039062 4.417969 C 44.816406 4.417969 45.507812 4.792969 45.9375 5.445312 C 46.359375 6.09375 46.429688 6.898438 46.121094 7.601562 C 46 7.886719 46.011719 8.210938 46.160156 8.484375 C 46.304688 8.757812 46.570312 8.949219 46.875 9 C 47.707031 9.140625 48.394531 9.660156 48.761719 10.425781 C 49.128906 11.199219 49.105469 12.0625 48.695312 12.800781 C 48.433594 13.265625 48.582031 13.855469 49.03125 14.140625 C 50.496094 15.074219 50.652344 16.636719 50.347656 17.691406 C 50.027344 18.785156 49.070312 19.953125 47.339844 19.953125 C 46.828125 19.953125 46.339844 19.832031 45.890625 19.601562 C 45.617188 19.457031 45.332031 19.347656 45.046875 19.273438 L 45.046875 15.765625 L 46.976562 13.820312 C 47.367188 13.425781 47.367188 12.785156 46.96875 12.394531 C 46.574219 12.003906 45.9375 12.003906 45.542969 12.402344 L 45.046875 12.902344 L 45.046875 10.800781 C 45.046875 10.242188 44.597656 9.789062 44.039062 9.789062 C 43.484375 9.789062 43.03125 10.242188 43.03125 10.800781 L 43.03125 15.378906 L 41.789062 14.125 C 41.394531 13.730469 40.757812 13.726562 40.363281 14.117188 C 39.964844 14.511719 39.964844 15.148438 40.355469 15.542969 L 43.03125 18.246094 L 43.03125 19.273438 C 42.746094 19.347656 42.464844 19.457031 42.1875 19.601562 C 41.738281 19.832031 41.25 19.953125 40.742188 19.953125 C 39.011719 19.953125 38.050781 18.785156 37.734375 17.691406 C 37.425781 16.636719 37.585938 15.074219 39.046875 14.140625 Z M 7.488281 21.476562 L 7.488281 2.546875 C 7.488281 2.410156 7.605469 2.292969 7.742188 2.292969 L 31 2.292969 C 31.136719 2.292969 31.25 2.410156 31.25 2.546875 L 31.25 21.476562 C 31.25 21.613281 31.136719 21.726562 31 21.726562 L 21.726562 21.726562 C 21.167969 21.726562 20.71875 22.179688 20.71875 22.734375 L 20.71875 28.710938 L 18.019531 28.710938 L 18.019531 22.734375 C 18.019531 22.179688 17.570312 21.726562 17.011719 21.726562 L 7.742188 21.726562 C 7.605469 21.726562 7.488281 21.613281 7.488281 21.476562 Z M 61.070312 20.40625 L 46.570312 42.515625 C 46.507812 42.613281 46.4375 42.652344 46.320312 42.652344 L 2.953125 42.652344 C 2.828125 42.652344 2.746094 42.605469 2.6875 42.496094 C 2.628906 42.386719 2.632812 42.292969 2.703125 42.191406 L 14.800781 23.746094 L 16.003906 23.746094 L 16.003906 29.71875 C 16.003906 30.273438 16.457031 30.726562 17.011719 30.726562 L 21.726562 30.726562 C 22.285156 30.726562 22.734375 30.273438 22.734375 29.71875 L 22.734375 23.746094 L 31 23.746094 C 32.25 23.746094 33.265625 22.726562 33.265625 21.476562 L 33.265625 19.945312 L 36.628906 19.945312 C 37.570312 21.210938 39.050781 21.96875 40.738281 21.96875 C 41.535156 21.96875 42.324219 21.78125 43.03125 21.429688 L 43.03125 26.386719 C 43.03125 26.945312 43.484375 27.394531 44.039062 27.394531 C 44.597656 27.394531 45.046875 26.945312 45.046875 26.386719 L 45.046875 21.429688 C 45.753906 21.78125 46.542969 21.96875 47.339844 21.96875 C 49.027344 21.96875 50.507812 21.210938 51.449219 19.945312 L 60.820312 19.945312 C 60.945312 19.945312 61.023438 19.996094 61.082031 20.101562 C 61.140625 20.210938 61.136719 20.304688 61.070312 20.40625 Z M 27.597656 12.011719 C 27.597656 7.472656 23.90625 3.785156 19.371094 3.785156 C 14.832031 3.785156 11.140625 7.472656 11.140625 12.011719 C 11.140625 16.546875 14.832031 20.238281 19.371094 20.238281 C 23.90625 20.238281 27.597656 16.546875 27.597656 12.011719 Z M 13.160156 12.011719 C 13.160156 8.585938 15.945312 5.800781 19.371094 5.800781 C 22.792969 5.800781 25.582031 8.585938 25.582031 12.011719 C 25.582031 15.4375 22.792969 18.222656 19.371094 18.222656 C 15.945312 18.222656 13.160156 15.4375 13.160156 12.011719 Z M 19.371094 17.585938 C 18.8125 17.585938 18.363281 17.136719 18.363281 16.578125 L 18.363281 16.433594 C 17.21875 16.128906 16.351562 15.308594 16.074219 14.195312 C 15.941406 13.65625 16.269531 13.109375 16.808594 12.972656 C 17.351562 12.839844 17.898438 13.167969 18.03125 13.707031 C 18.191406 14.351562 18.890625 14.5625 19.441406 14.550781 C 19.921875 14.539062 20.394531 14.375 20.589844 14.152344 C 20.652344 14.074219 20.691406 13.992188 20.671875 13.824219 C 20.648438 13.636719 20.597656 13.207031 19.214844 12.980469 C 16.757812 12.578125 16.328125 11.167969 16.289062 10.363281 C 16.226562 9.082031 17.050781 8 18.363281 7.605469 L 18.363281 7.441406 C 18.363281 6.886719 18.8125 6.433594 19.371094 6.433594 C 19.925781 6.433594 20.378906 6.886719 20.378906 7.441406 L 20.378906 7.597656 C 21.21875 7.839844 22 8.417969 22.425781 9.425781 C 22.640625 9.941406 22.398438 10.53125 21.886719 10.746094 C 21.371094 10.960938 20.78125 10.722656 20.566406 10.207031 C 20.25 9.457031 19.460938 9.414062 19.046875 9.507812 C 18.863281 9.550781 18.273438 9.726562 18.300781 10.265625 C 18.308594 10.394531 18.328125 10.789062 19.539062 10.988281 C 21.449219 11.304688 22.503906 12.175781 22.671875 13.578125 C 22.761719 14.292969 22.566406 14.945312 22.113281 15.46875 C 21.707031 15.941406 21.089844 16.285156 20.378906 16.453125 L 20.378906 16.578125 C 20.378906 17.136719 19.925781 17.585938 19.371094 17.585938 Z M 19.371094 17.585938 " fill-opacity="1" fill-rule="nonzero"/></g><g clip-path="url(#60b912827c)"><g clip-path="url(#933f0a5373)"><path fill="#5a8434" d="M 17.425781 28.765625 L 19.21875 28.765625 L 19.21875 30.558594 L 17.425781 30.558594 Z M 17.425781 28.765625 " fill-opacity="1" fill-rule="nonzero"/></g></g></svg>