<svg xmlns="http://www.w3.org/2000/svg" xmlns:xlink="http://www.w3.org/1999/xlink" width="182" zoomAndPan="magnify" viewBox="0 0 136.5 54" height="72" preserveAspectRatio="xMidYMid meet" version="1.0"><defs><g/></defs><g fill="#05206a" fill-opacity="1"><g transform="translate(30.382699, 29.506275)"><g><path d="M 0.328125 0 L 3.199219 0 L 4.492188 -3.609375 L 11.207031 -3.609375 L 12.488281 0 L 15.335938 0 L 8.84375 -16.617188 L 6.855469 -16.617188 Z M 5.386719 -5.902344 L 7.855469 -12.75 L 10.324219 -5.902344 Z M 5.386719 -5.902344 "/></g></g></g><g fill="#05206a" fill-opacity="1"><g transform="translate(49.682824, 29.506275)"><g><path d="M 2.246094 0 L 4.890625 0 L 4.890625 -16.617188 L 2.246094 -16.617188 Z M 2.246094 0 "/></g></g></g><g fill="#05206a" fill-opacity="1"><g transform="translate(60.457582, 29.506275)"><g><path d="M 6.832031 0.1875 C 9.9375 0.1875 12.429688 -1.695312 12.429688 -4.761719 C 12.429688 -10.230469 4.398438 -9.230469 4.398438 -12.546875 C 4.398438 -13.746094 5.421875 -14.535156 6.667969 -14.535156 C 7.84375 -14.535156 8.914062 -13.902344 9.515625 -12.714844 L 11.667969 -14.042969 C 10.5625 -15.996094 8.761719 -16.863281 6.738281 -16.863281 C 4.058594 -16.863281 1.777344 -15.21875 1.777344 -12.394531 C 1.777344 -7.089844 9.808594 -8.242188 9.808594 -4.539062 C 9.808594 -3.09375 8.714844 -2.152344 6.867188 -2.152344 C 5.046875 -2.152344 3.46875 -3.105469 3.246094 -5.234375 L 0.671875 -4.5625 C 1.175781 -1.375 3.964844 0.1875 6.832031 0.1875 Z M 6.832031 0.1875 "/></g></g></g><g fill="#05206a" fill-opacity="1"><g transform="translate(77.358845, 29.506275)"><g><path d="M 8.960938 0.234375 C 12.230469 0.234375 14.792969 -1.421875 16.101562 -4.445312 L 13.652344 -5.457031 C 12.75 -3.105469 11.148438 -2.246094 8.996094 -2.246094 C 5.28125 -2.246094 3.726562 -5 3.726562 -8.410156 C 3.726562 -11.65625 5.269531 -14.394531 8.949219 -14.394531 C 11.101562 -14.394531 12.960938 -13.546875 13.617188 -11.230469 L 16.078125 -12.21875 C 14.769531 -15.324219 12.21875 -16.886719 8.996094 -16.886719 C 3.585938 -16.886719 1.117188 -12.890625 1.117188 -8.328125 C 1.117188 -3.726562 3.632812 0.234375 8.960938 0.234375 Z M 8.960938 0.234375 "/></g></g></g><g fill="#05206a" fill-opacity="1"><g transform="translate(97.787845, 29.506275)"><g><path d="M 2.246094 0 L 4.890625 0 L 4.890625 -16.617188 L 2.246094 -16.617188 Z M 2.246094 0 "/></g></g></g><g fill="#3a3a3c" fill-opacity="1"><g transform="translate(3.579742, 41.27083)"><g><path d="M 0.105469 0 L 0.714844 0 L 1.011719 -0.839844 L 2.621094 -0.839844 L 2.914062 0 L 3.515625 0 L 2.027344 -3.867188 L 1.605469 -3.867188 Z M 1.199219 -1.332031 L 1.816406 -3.050781 L 2.429688 -1.332031 Z M 1.199219 -1.332031 "/></g></g></g><g fill="#3a3a3c" fill-opacity="1"><g transform="translate(8.370305, 41.27083)"><g><path d="M 2.085938 0.0546875 C 2.675781 0.0546875 3.113281 -0.25 3.296875 -0.628906 L 3.324219 0 L 3.773438 0 L 3.773438 -2.019531 L 2.359375 -2.019531 L 2.359375 -1.578125 L 3.242188 -1.578125 C 3.195312 -0.863281 2.695312 -0.453125 2.085938 -0.453125 C 1.203125 -0.453125 0.835938 -1.140625 0.835938 -1.960938 C 0.835938 -2.738281 1.203125 -3.429688 2.074219 -3.429688 C 2.59375 -3.429688 3 -3.167969 3.207031 -2.648438 L 3.707031 -2.863281 C 3.402344 -3.558594 2.824219 -3.929688 2.082031 -3.929688 C 0.855469 -3.929688 0.289062 -3.003906 0.289062 -1.933594 C 0.289062 -0.863281 0.855469 0.0546875 2.085938 0.0546875 Z M 2.085938 0.0546875 "/></g></g></g><g fill="#3a3a3c" fill-opacity="1"><g transform="translate(13.702459, 41.27083)"><g><path d="M 0.542969 0 L 3.078125 0 L 3.078125 -0.515625 L 1.097656 -0.515625 L 1.097656 -1.6875 L 2.875 -1.6875 L 2.875 -2.179688 L 1.097656 -2.179688 L 1.097656 -3.371094 L 3.078125 -3.371094 L 3.078125 -3.867188 L 0.542969 -3.867188 Z M 0.542969 0 "/></g></g></g><g fill="#3a3a3c" fill-opacity="1"><g transform="translate(18.271462, 41.27083)"><g><path d="M 0.542969 0 L 1.082031 0 L 1.082031 -3.085938 L 2.722656 0 L 3.386719 0 L 3.386719 -3.867188 L 2.84375 -3.867188 L 2.84375 -0.789062 L 1.199219 -3.867188 L 0.542969 -3.867188 Z M 0.542969 0 "/></g></g></g><g fill="#3a3a3c" fill-opacity="1"><g transform="translate(23.368379, 41.27083)"><g><path d="M 2.082031 0.0546875 C 2.835938 0.0546875 3.417969 -0.324219 3.714844 -1.015625 L 3.203125 -1.230469 C 2.988281 -0.667969 2.59375 -0.46875 2.09375 -0.46875 C 1.203125 -0.46875 0.835938 -1.140625 0.835938 -1.953125 C 0.835938 -2.734375 1.199219 -3.40625 2.082031 -3.40625 C 2.582031 -3.40625 3.039062 -3.210938 3.195312 -2.648438 L 3.710938 -2.863281 C 3.417969 -3.582031 2.835938 -3.929688 2.097656 -3.929688 C 0.847656 -3.929688 0.289062 -3.003906 0.289062 -1.9375 C 0.289062 -0.863281 0.859375 0.0546875 2.082031 0.0546875 Z M 2.082031 0.0546875 "/></g></g></g><g fill="#3a3a3c" fill-opacity="1"><g transform="translate(28.437943, 41.27083)"><g><path d="M 0.542969 0 L 3.078125 0 L 3.078125 -0.515625 L 1.097656 -0.515625 L 1.097656 -1.6875 L 2.875 -1.6875 L 2.875 -2.179688 L 1.097656 -2.179688 L 1.097656 -3.371094 L 3.078125 -3.371094 L 3.078125 -3.867188 L 0.542969 -3.867188 Z M 0.542969 0 "/></g></g></g><g fill="#3a3a3c" fill-opacity="1"><g transform="translate(33.006945, 41.27083)"><g/></g></g><g fill="#3a3a3c" fill-opacity="1"><g transform="translate(35.595585, 41.27083)"><g><path d="M 0.542969 0 L 1.097656 0 L 1.097656 -3.867188 L 0.542969 -3.867188 Z M 0.542969 0 "/></g></g></g><g fill="#3a3a3c" fill-opacity="1"><g transform="translate(38.405785, 41.27083)"><g><path d="M 0.542969 0 L 1.082031 0 L 1.082031 -3.210938 L 2.152344 -0.335938 L 2.71875 -0.335938 L 3.785156 -3.210938 L 3.785156 0 L 4.328125 0 L 4.328125 -3.867188 L 3.511719 -3.867188 L 2.429688 -0.929688 L 1.359375 -3.867188 L 0.542969 -3.867188 Z M 0.542969 0 "/></g></g></g><g fill="#3a3a3c" fill-opacity="1"><g transform="translate(44.443647, 41.27083)"><g><path d="M 0.542969 0 L 1.082031 0 L 1.082031 -3.210938 L 2.152344 -0.335938 L 2.71875 -0.335938 L 3.785156 -3.210938 L 3.785156 0 L 4.328125 0 L 4.328125 -3.867188 L 3.511719 -3.867188 L 2.429688 -0.929688 L 1.359375 -3.867188 L 0.542969 -3.867188 Z M 0.542969 0 "/></g></g></g><g fill="#3a3a3c" fill-opacity="1"><g transform="translate(50.481508, 41.27083)"><g><path d="M 2.082031 0.0546875 C 3.308594 0.0546875 3.878906 -0.871094 3.878906 -1.933594 C 3.878906 -2.996094 3.308594 -3.925781 2.082031 -3.925781 C 0.855469 -3.925781 0.285156 -2.996094 0.285156 -1.933594 C 0.285156 -0.871094 0.855469 0.0546875 2.082031 0.0546875 Z M 2.082031 -0.445312 C 1.195312 -0.445312 0.855469 -1.152344 0.855469 -1.933594 C 0.855469 -2.714844 1.195312 -3.421875 2.082031 -3.421875 C 2.96875 -3.421875 3.3125 -2.714844 3.3125 -1.933594 C 3.3125 -1.152344 2.96875 -0.445312 2.082031 -0.445312 Z M 2.082031 -0.445312 "/></g></g></g><g fill="#3a3a3c" fill-opacity="1"><g transform="translate(55.813661, 41.27083)"><g><path d="M 0.542969 0 L 1.925781 0 C 2.554688 0 3.167969 -0.328125 3.167969 -1.074219 C 3.167969 -1.542969 2.886719 -1.898438 2.511719 -2.054688 C 2.765625 -2.199219 2.976562 -2.472656 2.976562 -2.871094 C 2.976562 -3.605469 2.34375 -3.867188 1.738281 -3.867188 L 0.542969 -3.867188 Z M 1.09375 -2.234375 L 1.09375 -3.367188 L 1.746094 -3.367188 C 2.125 -3.367188 2.4375 -3.230469 2.4375 -2.820312 C 2.4375 -2.386719 2.125 -2.234375 1.769531 -2.234375 Z M 1.09375 -0.523438 L 1.09375 -1.746094 L 1.925781 -1.746094 C 2.3125 -1.746094 2.621094 -1.550781 2.621094 -1.121094 C 2.621094 -0.679688 2.320312 -0.523438 1.933594 -0.523438 Z M 1.09375 -0.523438 "/></g></g></g><g fill="#3a3a3c" fill-opacity="1"><g transform="translate(60.423693, 41.27083)"><g><path d="M 0.542969 0 L 1.097656 0 L 1.097656 -3.867188 L 0.542969 -3.867188 Z M 0.542969 0 "/></g></g></g><g fill="#3a3a3c" fill-opacity="1"><g transform="translate(63.233893, 41.27083)"><g><path d="M 0.542969 0 L 2.753906 0 L 2.753906 -0.515625 L 1.097656 -0.515625 L 1.097656 -3.867188 L 0.542969 -3.867188 Z M 0.542969 0 "/></g></g></g><g fill="#3a3a3c" fill-opacity="1"><g transform="translate(67.274981, 41.27083)"><g><path d="M 0.542969 0 L 1.097656 0 L 1.097656 -3.867188 L 0.542969 -3.867188 Z M 0.542969 0 "/></g></g></g><g fill="#3a3a3c" fill-opacity="1"><g transform="translate(70.085181, 41.27083)"><g><path d="M 1.578125 -4.175781 L 2.027344 -4.175781 L 1.421875 -5 L 0.808594 -5 Z M 0.542969 0 L 3.078125 0 L 3.078125 -0.515625 L 1.097656 -0.515625 L 1.097656 -1.6875 L 2.875 -1.6875 L 2.875 -2.179688 L 1.097656 -2.179688 L 1.097656 -3.371094 L 3.078125 -3.371094 L 3.078125 -3.867188 L 0.542969 -3.867188 Z M 0.542969 0 "/></g></g></g><g fill="#3a3a3c" fill-opacity="1"><g transform="translate(74.654187, 41.27083)"><g><path d="M 0.542969 0.00390625 L 1.097656 0.00390625 L 1.097656 -1.695312 L 1.652344 -1.695312 L 2.613281 0.00390625 L 3.257812 0.00390625 L 2.195312 -1.757812 C 2.664062 -1.882812 2.988281 -2.253906 2.988281 -2.761719 C 2.988281 -3.453125 2.417969 -3.863281 1.714844 -3.863281 L 0.542969 -3.863281 Z M 1.101562 -2.171875 L 1.101562 -3.371094 L 1.722656 -3.371094 C 2.152344 -3.371094 2.4375 -3.140625 2.4375 -2.757812 C 2.4375 -2.398438 2.175781 -2.191406 1.78125 -2.171875 Z M 1.101562 -2.171875 "/></g></g></g><g fill="#3a3a3c" fill-opacity="1"><g transform="translate(79.223194, 41.27083)"><g><path d="M 0.542969 0 L 3.078125 0 L 3.078125 -0.515625 L 1.097656 -0.515625 L 1.097656 -1.6875 L 2.875 -1.6875 L 2.875 -2.179688 L 1.097656 -2.179688 L 1.097656 -3.371094 L 3.078125 -3.371094 L 3.078125 -3.867188 L 0.542969 -3.867188 Z M 0.542969 0 "/></g></g></g><g fill="#3a3a3c" fill-opacity="1"><g transform="translate(83.7922, 41.27083)"><g/></g></g><g fill="#3a3a3c" fill-opacity="1"><g transform="translate(86.380845, 41.27083)"><g><path d="M 0.542969 0 L 3.078125 0 L 3.078125 -0.515625 L 1.097656 -0.515625 L 1.097656 -1.6875 L 2.875 -1.6875 L 2.875 -2.179688 L 1.097656 -2.179688 L 1.097656 -3.371094 L 3.078125 -3.371094 L 3.078125 -3.867188 L 0.542969 -3.867188 Z M 0.542969 0 "/></g></g></g><g fill="#3a3a3c" fill-opacity="1"><g transform="translate(90.949851, 41.27083)"><g><path d="M 1.375 0 L 1.933594 0 L 1.933594 -3.386719 L 3.195312 -3.386719 L 3.195312 -3.867188 L 0.113281 -3.867188 L 0.113281 -3.386719 L 1.375 -3.386719 Z M 1.375 0 "/></g></g></g><g fill="#3a3a3c" fill-opacity="1"><g transform="translate(95.425857, 41.27083)"><g/></g></g><g fill="#3a3a3c" fill-opacity="1"><g transform="translate(98.014501, 41.27083)"><g><path d="M 1.582031 0.0429688 C 2.292969 0.0429688 2.851562 -0.394531 2.851562 -1.09375 C 2.851562 -2.359375 0.984375 -2.136719 0.984375 -2.941406 C 0.984375 -3.242188 1.246094 -3.433594 1.542969 -3.433594 C 1.828125 -3.433594 2.089844 -3.289062 2.238281 -3.003906 L 2.679688 -3.289062 C 2.429688 -3.726562 2.023438 -3.925781 1.558594 -3.925781 C 0.945312 -3.925781 0.433594 -3.539062 0.433594 -2.902344 C 0.433594 -1.6875 2.304688 -1.953125 2.304688 -1.046875 C 2.304688 -0.671875 2.027344 -0.453125 1.585938 -0.453125 C 1.152344 -0.453125 0.769531 -0.679688 0.71875 -1.183594 L 0.179688 -1.039062 C 0.296875 -0.316406 0.925781 0.0429688 1.582031 0.0429688 Z M 1.582031 0.0429688 "/></g></g></g><g fill="#3a3a3c" fill-opacity="1"><g transform="translate(102.258006, 41.27083)"><g><path d="M 0.542969 0 L 3.078125 0 L 3.078125 -0.515625 L 1.097656 -0.515625 L 1.097656 -1.6875 L 2.875 -1.6875 L 2.875 -2.179688 L 1.097656 -2.179688 L 1.097656 -3.371094 L 3.078125 -3.371094 L 3.078125 -3.867188 L 0.542969 -3.867188 Z M 0.542969 0 "/></g></g></g><g fill="#3a3a3c" fill-opacity="1"><g transform="translate(106.827012, 41.27083)"><g><path d="M 0.542969 0.00390625 L 1.097656 0.00390625 L 1.097656 -1.695312 L 1.652344 -1.695312 L 2.613281 0.00390625 L 3.257812 0.00390625 L 2.195312 -1.757812 C 2.664062 -1.882812 2.988281 -2.253906 2.988281 -2.761719 C 2.988281 -3.453125 2.417969 -3.863281 1.714844 -3.863281 L 0.542969 -3.863281 Z M 1.101562 -2.171875 L 1.101562 -3.371094 L 1.722656 -3.371094 C 2.152344 -3.371094 2.4375 -3.140625 2.4375 -2.757812 C 2.4375 -2.398438 2.175781 -2.191406 1.78125 -2.171875 Z M 1.101562 -2.171875 "/></g></g></g><g fill="#3a3a3c" fill-opacity="1"><g transform="translate(111.396019, 41.27083)"><g><path d="M 1.605469 0 L 2.050781 0 L 3.542969 -3.867188 L 2.949219 -3.867188 L 1.832031 -0.835938 L 0.707031 -3.867188 L 0.105469 -3.867188 Z M 1.605469 0 "/></g></g></g><g fill="#3a3a3c" fill-opacity="1"><g transform="translate(116.213938, 41.27083)"><g><path d="M 0.542969 0 L 1.097656 0 L 1.097656 -3.867188 L 0.542969 -3.867188 Z M 0.542969 0 "/></g></g></g><g fill="#3a3a3c" fill-opacity="1"><g transform="translate(119.024142, 41.27083)"><g><path d="M 2.082031 0.0546875 C 2.835938 0.0546875 3.417969 -0.324219 3.714844 -1.015625 L 3.203125 -1.230469 C 2.988281 -0.667969 2.59375 -0.46875 2.09375 -0.46875 C 1.203125 -0.46875 0.835938 -1.140625 0.835938 -1.953125 C 0.835938 -2.734375 1.199219 -3.40625 2.082031 -3.40625 C 2.582031 -3.40625 3.039062 -3.210938 3.195312 -2.648438 L 3.710938 -2.863281 C 3.417969 -3.582031 2.835938 -3.929688 2.097656 -3.929688 C 0.847656 -3.929688 0.289062 -3.003906 0.289062 -1.9375 C 0.289062 -0.863281 0.859375 0.0546875 2.082031 0.0546875 Z M 2.082031 0.0546875 "/></g></g></g><g fill="#3a3a3c" fill-opacity="1"><g transform="translate(124.09371, 41.27083)"><g><path d="M 0.542969 0 L 3.078125 0 L 3.078125 -0.515625 L 1.097656 -0.515625 L 1.097656 -1.6875 L 2.875 -1.6875 L 2.875 -2.179688 L 1.097656 -2.179688 L 1.097656 -3.371094 L 3.078125 -3.371094 L 3.078125 -3.867188 L 0.542969 -3.867188 Z M 0.542969 0 "/></g></g></g><g fill="#3a3a3c" fill-opacity="1"><g transform="translate(128.662716, 41.27083)"><g><path d="M 1.582031 0.0429688 C 2.292969 0.0429688 2.851562 -0.394531 2.851562 -1.09375 C 2.851562 -2.359375 0.984375 -2.136719 0.984375 -2.941406 C 0.984375 -3.242188 1.246094 -3.433594 1.542969 -3.433594 C 1.828125 -3.433594 2.089844 -3.289062 2.238281 -3.003906 L 2.679688 -3.289062 C 2.429688 -3.726562 2.023438 -3.925781 1.558594 -3.925781 C 0.945312 -3.925781 0.433594 -3.539062 0.433594 -2.902344 C 0.433594 -1.6875 2.304688 -1.953125 2.304688 -1.046875 C 2.304688 -0.671875 2.027344 -0.453125 1.585938 -0.453125 C 1.152344 -0.453125 0.769531 -0.679688 0.71875 -1.183594 L 0.179688 -1.039062 C 0.296875 -0.316406 0.925781 0.0429688 1.582031 0.0429688 Z M 1.582031 0.0429688 "/></g></g></g><g fill="#05206a" fill-opacity="1"><g transform="translate(34.687306, 48.875844)"><g><path d="M 0.523438 0 L 3.078125 0 L 3.078125 -0.574219 L 1.140625 -0.574219 L 1.140625 -1.660156 L 2.902344 -1.660156 L 2.902344 -2.210938 L 1.140625 -2.210938 L 1.140625 -3.3125 L 3.078125 -3.3125 L 3.078125 -3.867188 L 0.523438 -3.867188 Z M 0.523438 0 "/></g></g></g><g fill="#05206a" fill-opacity="1"><g transform="translate(39.259044, 48.875844)"><g><path d="M 0.523438 0 L 1.121094 0 L 1.121094 -2.933594 L 2.75 0 L 3.425781 0 L 3.425781 -3.867188 L 2.832031 -3.867188 L 2.832031 -0.941406 L 1.195312 -3.867188 L 0.523438 -3.867188 Z M 0.523438 0 "/></g></g></g><g fill="#05206a" fill-opacity="1"><g transform="translate(44.377844, 48.875844)"><g/></g></g><g fill="#05206a" fill-opacity="1"><g transform="translate(46.936397, 48.875844)"><g><path d="M 2.085938 0.0546875 C 2.847656 0.0546875 3.445312 -0.332031 3.746094 -1.035156 L 3.179688 -1.269531 C 2.96875 -0.722656 2.59375 -0.523438 2.09375 -0.523438 C 1.230469 -0.523438 0.867188 -1.164062 0.867188 -1.957031 C 0.867188 -2.710938 1.226562 -3.351562 2.082031 -3.351562 C 2.585938 -3.351562 3.015625 -3.152344 3.167969 -2.613281 L 3.742188 -2.84375 C 3.4375 -3.566406 2.84375 -3.929688 2.09375 -3.929688 C 0.835938 -3.929688 0.261719 -3 0.261719 -1.9375 C 0.261719 -0.867188 0.847656 0.0546875 2.085938 0.0546875 Z M 2.085938 0.0546875 "/></g></g></g><g fill="#05206a" fill-opacity="1"><g transform="translate(52.014167, 48.875844)"><g><path d="M 1.203125 -4.136719 L 1.695312 -4.136719 L 2.078125 -4.570312 L 2.464844 -4.136719 L 2.957031 -4.136719 L 2.078125 -5.101562 Z M 2.082031 0.0546875 C 3.335938 0.0546875 3.910156 -0.875 3.910156 -1.933594 C 3.910156 -2.996094 3.335938 -3.925781 2.082031 -3.925781 C 0.835938 -3.925781 0.261719 -2.996094 0.261719 -1.933594 C 0.261719 -0.875 0.835938 0.0546875 2.082031 0.0546875 Z M 2.082031 -0.492188 C 1.222656 -0.492188 0.898438 -1.175781 0.898438 -1.933594 C 0.898438 -2.695312 1.222656 -3.375 2.082031 -3.375 C 2.949219 -3.375 3.277344 -2.695312 3.277344 -1.933594 C 3.277344 -1.175781 2.949219 -0.492188 2.082031 -0.492188 Z M 2.082031 -0.492188 "/></g></g></g><g fill="#05206a" fill-opacity="1"><g transform="translate(57.354526, 48.875844)"><g><path d="M 1.332031 0 L 1.945312 0 L 1.945312 -3.328125 L 3.1875 -3.328125 L 3.1875 -3.867188 L 0.0898438 -3.867188 L 0.0898438 -3.328125 L 1.332031 -3.328125 Z M 1.332031 0 "/></g></g></g><g fill="#05206a" fill-opacity="1"><g transform="translate(61.800439, 48.875844)"><g><path d="M 0.523438 0 L 3.078125 0 L 3.078125 -0.574219 L 1.140625 -0.574219 L 1.140625 -1.660156 L 2.902344 -1.660156 L 2.902344 -2.210938 L 1.140625 -2.210938 L 1.140625 -3.3125 L 3.078125 -3.3125 L 3.078125 -3.867188 L 0.523438 -3.867188 Z M 0.523438 0 "/></g></g></g><g fill="#05206a" fill-opacity="1"><g transform="translate(66.372176, 48.875844)"><g/></g></g><g fill="#05206a" fill-opacity="1"><g transform="translate(68.930728, 48.875844)"><g><path d="M 0.523438 0 L 1.597656 0 C 2.882812 0 3.597656 -0.695312 3.597656 -1.90625 C 3.597656 -3.167969 2.902344 -3.867188 1.605469 -3.867188 L 0.523438 -3.867188 Z M 1.140625 -0.5625 L 1.140625 -3.308594 L 1.59375 -3.308594 C 2.566406 -3.308594 2.984375 -2.878906 2.984375 -1.933594 C 2.984375 -0.9375 2.398438 -0.5625 1.53125 -0.5625 Z M 1.140625 -0.5625 "/></g></g></g><g fill="#05206a" fill-opacity="1"><g transform="translate(73.953791, 48.875844)"><g><path d="M 0.582031 -2.550781 L 1.082031 -2.550781 L 1.082031 -3.945312 L 0.582031 -3.945312 Z M 0.582031 -2.550781 "/></g></g></g><g fill="#05206a" fill-opacity="1"><g transform="translate(76.791344, 48.875844)"><g><path d="M 0.523438 0 L 1.140625 0 L 1.140625 -3.867188 L 0.523438 -3.867188 Z M 0.523438 0 "/></g></g></g><g fill="#05206a" fill-opacity="1"><g transform="translate(79.623427, 48.875844)"><g><path d="M 1.597656 0 L 2.070312 0 L 3.582031 -3.867188 L 2.921875 -3.867188 L 1.835938 -0.957031 L 0.746094 -3.867188 L 0.078125 -3.867188 Z M 1.597656 0 "/></g></g></g><g fill="#05206a" fill-opacity="1"><g transform="translate(84.452283, 48.875844)"><g><path d="M 2.082031 0.0546875 C 3.335938 0.0546875 3.910156 -0.875 3.910156 -1.933594 C 3.910156 -2.996094 3.335938 -3.925781 2.082031 -3.925781 C 0.835938 -3.925781 0.261719 -2.996094 0.261719 -1.933594 C 0.261719 -0.875 0.835938 0.0546875 2.082031 0.0546875 Z M 2.082031 -0.492188 C 1.222656 -0.492188 0.898438 -1.175781 0.898438 -1.933594 C 0.898438 -2.695312 1.222656 -3.375 2.082031 -3.375 C 2.949219 -3.375 3.277344 -2.695312 3.277344 -1.933594 C 3.277344 -1.175781 2.949219 -0.492188 2.082031 -0.492188 Z M 2.082031 -0.492188 "/></g></g></g><g fill="#05206a" fill-opacity="1"><g transform="translate(89.792642, 48.875844)"><g><path d="M 0.523438 0 L 1.140625 0 L 1.140625 -3.867188 L 0.523438 -3.867188 Z M 0.523438 0 "/></g></g></g><g fill="#05206a" fill-opacity="1"><g transform="translate(92.624724, 48.875844)"><g><path d="M 0.523438 0.00390625 L 1.140625 0.00390625 L 1.140625 -1.679688 L 1.65625 -1.679688 L 2.613281 0.00390625 L 3.320312 0.00390625 L 2.253906 -1.742188 C 2.707031 -1.878906 3.03125 -2.25 3.03125 -2.75 C 3.03125 -3.453125 2.4375 -3.867188 1.730469 -3.867188 L 0.523438 -3.867188 Z M 1.144531 -2.191406 L 1.144531 -3.316406 L 1.734375 -3.316406 C 2.152344 -3.316406 2.421875 -3.097656 2.421875 -2.738281 C 2.421875 -2.410156 2.179688 -2.210938 1.792969 -2.191406 Z M 1.144531 -2.191406 "/></g></g></g><g fill="#05206a" fill-opacity="1"><g transform="translate(97.223815, 48.875844)"><g><path d="M 0.523438 0 L 3.078125 0 L 3.078125 -0.574219 L 1.140625 -0.574219 L 1.140625 -1.660156 L 2.902344 -1.660156 L 2.902344 -2.210938 L 1.140625 -2.210938 L 1.140625 -3.3125 L 3.078125 -3.3125 L 3.078125 -3.867188 L 0.523438 -3.867188 Z M 0.523438 0 "/></g></g></g></svg>