<svg xmlns="http://www.w3.org/2000/svg" xmlns:xlink="http://www.w3.org/1999/xlink" width="99" zoomAndPan="magnify" viewBox="0 0 74.25 48" height="64" preserveAspectRatio="xMidYMid meet" version="1.0"><defs><clipPath id="96f90fecbf"><path d="M 53 5 L 72.980469 5 L 72.980469 23.828125 L 53 23.828125 Z M 53 5 " clip-rule="nonzero"/></clipPath><clipPath id="89cb2df625"><path d="M 30 6 L 50 6 L 50 23.828125 L 30 23.828125 Z M 30 6 " clip-rule="nonzero"/></clipPath><clipPath id="659a359d7c"><path d="M 0.695312 0.636719 L 31 0.636719 L 31 23.828125 L 0.695312 23.828125 Z M 0.695312 0.636719 " clip-rule="nonzero"/></clipPath><clipPath id="8aa17db0e9"><path d="M 54 27.589844 L 71.144531 27.589844 L 71.144531 35 L 54 35 Z M 54 27.589844 " clip-rule="nonzero"/></clipPath><clipPath id="c37943ebb4"><path d="M 45 27.589844 L 68 27.589844 L 68 35 L 45 35 Z M 45 27.589844 " clip-rule="nonzero"/></clipPath><clipPath id="0343b4da9d"><path d="M 38 27.589844 L 62 27.589844 L 62 33 L 38 33 Z M 38 27.589844 " clip-rule="nonzero"/></clipPath><clipPath id="bb9ba1a75d"><path d="M 11 27.589844 L 62 27.589844 L 62 39 L 11 39 Z M 11 27.589844 " clip-rule="nonzero"/></clipPath><clipPath id="e209c7f276"><path d="M 6 27.589844 L 55 27.589844 L 55 44 L 6 44 Z M 6 27.589844 " clip-rule="nonzero"/></clipPath><clipPath id="468f43cf17"><path d="M 2.582031 28 L 41 28 L 41 46.894531 L 2.582031 46.894531 Z M 2.582031 28 " clip-rule="nonzero"/></clipPath></defs><g clip-path="url(#96f90fecbf)"><path fill="#fa8604" d="M 73.085938 23.9375 C 71.566406 23.9375 70.042969 23.9375 68.527344 23.9375 L 69.40625 23.257812 L 53.695312 7.429688 L 55.253906 5.972656 Z M 73.085938 23.9375 " fill-opacity="1" fill-rule="evenodd"/></g><g clip-path="url(#89cb2df625)"><path fill="#fa8604" d="M 49.515625 23.9375 C 47.996094 23.9375 46.472656 23.9375 44.957031 23.9375 L 45.835938 23.257812 L 30.746094 8.054688 L 32.300781 6.597656 Z M 49.515625 23.9375 " fill-opacity="1" fill-rule="evenodd"/></g><path fill="#118809" d="M 53.8125 3.824219 L 35.871094 5.933594 L 43.160156 13.785156 Z M 53.8125 3.824219 " fill-opacity="1" fill-rule="evenodd"/><g clip-path="url(#659a359d7c)"><path fill="#118809" d="M 14.53125 6.769531 L 10.308594 5.449219 C 10.308594 7.09375 10.308594 8.734375 10.308594 10.378906 L 6.625 14.277344 L 6.625 0.203125 L 3.929688 1.699219 L 3.929688 4.367188 L -3.722656 2.902344 L 2.949219 8.285156 L -13.074219 23.832031 L 11.667969 23.832031 L 30.433594 4.777344 Z M 14.53125 6.769531 " fill-opacity="1" fill-rule="evenodd"/></g><path fill="#118809" d="M 55.136719 20.378906 L 56.996094 20.378906 L 56.996094 18.519531 L 55.136719 18.519531 Z M 52.921875 18.519531 L 52.921875 20.378906 L 54.78125 20.378906 L 54.78125 18.519531 Z M 54.78125 16.304688 L 52.921875 16.304688 L 52.921875 18.164062 L 54.78125 18.164062 Z M 56.996094 16.304688 L 55.136719 16.304688 L 55.136719 18.164062 L 56.996094 18.164062 Z M 56.996094 16.304688 " fill-opacity="1" fill-rule="evenodd"/><path fill="#118809" d="M 31.203125 20.335938 L 33.0625 20.335938 L 33.0625 18.476562 L 31.203125 18.476562 Z M 28.984375 18.476562 L 28.984375 20.335938 L 30.84375 20.335938 L 30.84375 18.476562 Z M 30.84375 16.257812 L 28.984375 16.257812 L 28.984375 18.117188 L 30.84375 18.117188 Z M 33.0625 16.257812 L 31.203125 16.257812 L 31.203125 18.117188 L 33.0625 18.117188 Z M 33.0625 16.257812 " fill-opacity="1" fill-rule="evenodd"/><g clip-path="url(#8aa17db0e9)"><path fill="#5a8434" d="M 54.824219 34.035156 C 54.824219 34.035156 64.558594 27.894531 71.199219 27.894531 C 71.199219 27.894531 62.539062 33.300781 59.574219 33.589844 C 56.582031 33.878906 54.824219 34.035156 54.824219 34.035156 Z M 54.824219 34.035156 " fill-opacity="1" fill-rule="evenodd"/></g><g clip-path="url(#c37943ebb4)"><path fill="#5a8434" d="M 45.5625 33.429688 C 47.84375 32.300781 58.65625 27.265625 67.023438 27.476562 C 67.023438 27.476562 54.773438 31.226562 50.652344 34.085938 C 48.945312 34.007812 47.242188 33.773438 45.5625 33.429688 Z M 45.5625 33.429688 " fill-opacity="1" fill-rule="evenodd"/></g><g clip-path="url(#0343b4da9d)"><path fill="#5a8434" d="M 38.320312 31.382812 C 42.074219 30.441406 54.875 27.238281 61.359375 26.949219 L 42.335938 32.617188 C 42.175781 32.566406 42.046875 32.511719 41.890625 32.488281 C 40.707031 32.117188 39.527344 31.75 38.320312 31.382812 Z M 38.320312 31.382812 " fill-opacity="1" fill-rule="evenodd"/></g><g clip-path="url(#bb9ba1a75d)"><path fill="#5a8434" d="M 11.820312 27.109375 C 11.820312 27.109375 23.625 29.890625 30.265625 33.117188 C 36.902344 36.34375 57.421875 44.058594 61.960938 33.796875 C 61.960938 33.796875 53.984375 37.628906 41.496094 33.773438 C 28.980469 29.914062 18.167969 27.238281 11.820312 27.109375 Z M 11.820312 27.109375 " fill-opacity="1" fill-rule="evenodd"/></g><g clip-path="url(#e209c7f276)"><path fill="#5a8434" d="M 6.753906 27.554688 C 6.753906 27.554688 13.996094 28.601562 25.9375 36.632812 C 37.875 44.660156 50.679688 45.265625 54.351562 40.726562 C 54.351562 40.726562 42.832031 41.355469 32.992188 36.476562 C 23.152344 31.621094 11.871094 26.242188 6.753906 27.554688 Z M 6.753906 27.554688 " fill-opacity="1" fill-rule="evenodd"/></g><g clip-path="url(#468f43cf17)"><path fill="#5a8434" d="M 2.582031 28.105469 C 14.652344 32.40625 22.234375 52.242188 40.289062 45.632812 C 23.152344 42.300781 20.949219 30.441406 2.582031 28.105469 Z M 2.582031 28.105469 " fill-opacity="1" fill-rule="evenodd"/></g></svg>